Genre:Biography | Drama | Sport
Language:English  http://www.imdb.com/title/tt0964517/
Source:mf34inc/T0XiC-iNK Thx.
Subtitles:Romana


Format : MPEG-4
Format profile : Base Media
Codec ID : isom
File size : 1.03 GiB
Duration : 1h 55mn
Overall bit rate : 1 281 Kbps
Movie name : The.Fighter.2010.WEBSCR.x264.Feel-Free


Video
Format settings, CABAC : Yes
Format settings, ReFrames : 4 frames
Format settings, GOP : M=4, N=16
Codec ID : avc1
Codec ID/Info : Advanced Video Coding
Duration : 1h 55mn
Bit rate mode : Variable
Bit rate : 899 Kbps
Width : 720 pixels
Height : 304 pixels
Display aspect ratio : 2.35:1
Frame rate mode : Constant
Frame rate : 23.976 fps
Color space : YUV
Chroma subsampling : 4:2:0
Bit depth : 8 bits
Scan type : Progressive
Bits/(Pixel*Frame) : 0.171
Stream size : 749 MiB (71%)
Writing library : x264

Audio
ID : 2
Format : AAC
Format/Info : Advanced Audio Codec
Format version : Version 4
Format profile : LC
Codec ID : 40
Duration : 1h 55mn
Bit rate mode : Variable
Bit rate : 370 Kbps
Channel(s) : 6 channels
Channel positions : Front: L C R, Side: L R, LFE
Sampling rate : 48.0 KHz
Stream size : 306 MiB (29%)


Plot:
A look at the early years of boxer "Irish" Micky Ward and his brother who helped train him before going pro in the mid 1980s
 
http://rapidhdd.com/images/694799vlcsnap-00001.png 
http://www.rapidhdd.com/images/157399vlcsnap-00002.png 
http://www.rapidhdd.com/images/425466vlcsnap-00004.png 
http://www.rapidhdd.com/images/75072vlcsnap-00005.png